<svg xmlns="http://www.w3.org/2000/svg" viewBox="0 0 516.09 451.73"><defs><style>.cls-1{fill:#da8624;}.cls-2{fill:#a8dada;}.cls-3{fill:#c2c2c2;}.cls-4{fill:#464746;}.cls-5{fill:#1ca679;}.cls-6{fill:#a9dada;}.cls-7{fill:#1da579;}.cls-8{fill:#6b6a6a;}.cls-9{fill:#e05352;}</style></defs><g id="Layer_2" data-name="Layer 2"><g id="Layer_1-2" data-name="Layer 1"><g id="Layer_2-2" data-name="Layer 2"><g id="Layer_1-2-2" data-name="Layer 1-2"><path class="cls-1" d="M184.92,419.6q-.12-5-.25-10a3.06,3.06,0,0,0,.18-.86c-.34-6.85-.13-13.71-.46-20.57-.22-4.5-.13-9-.17-13.53A4.43,4.43,0,0,0,184,372q-.12-8.61-.26-17.21l.3-.87c1.1-.78,2.2-1.56,3.31-2.33l27.09-18.68q23.57-16.28,47.11-32.57l28.92-20,43.8-30.22q15.09-10.4,30.16-20.81c8.16-5.65,16.29-11.34,24.45-17S405,201.26,413,195.7q12.61-8.7,25.16-17.48c2.12-1.49,4.46-2.68,6.28-4.58h.77a25.54,25.54,0,0,0,3.58,2.63c3.92,2.8,7.89,5.53,11.74,8.43,5.64,4.26,11.21,8.61,16.76,13,5.39,4.26,10.86,8.43,16.14,12.83,5.12,4.28,10.32,8.45,14.92,13.34a29.87,29.87,0,0,1,7.18,11.7,11.85,11.85,0,0,1-2.2,11A16.06,16.06,0,0,1,501,253.12c-.94.07-1.12.64-1.13,1.43,0,3.31-.1,6.63-.17,9.94-.23,10.08-.39,20.17-.64,30.25-.18,7.17,0,14.35-.49,21.52-.42,5.81-.15,11.64-.28,17.45-.33,14.55-.53,29.1-1,43.64-.18,5.78,0,11.55-.29,17.31-.51,11.14-.29,22.28-.45,33.42a22.41,22.41,0,0,1-10.45,19.13,28.92,28.92,0,0,1-10,3.75,32.07,32.07,0,0,1-7.26.41c-41.62,0-83.25-.3-124.87.1-44.38.43-88.76.09-133.14.26-4,0-7.84-1.23-11.57-2.65a21.83,21.83,0,0,1-5.69-3.23,20.53,20.53,0,0,1-6.17-8.46,37.53,37.53,0,0,1-2.57-16.87C185.15,420.27,185.28,420,184.92,419.6Z"/><path class="cls-2" d="M34.68,287.65c0-2.38-.07-4.75-.1-7.12a2.35,2.35,0,0,1,.3-.33L78,247.2q17.34-13.29,34.7-26.56c.79-.6,1-1,.33-1.93a31.67,31.67,0,0,0-9.65-8.6,30.07,30.07,0,0,0-13.68-4,33.76,33.76,0,0,0-11.69,1.41,31.31,31.31,0,0,0-11.91,6.78c-.49.45-.81.76-1.5.24a31,31,0,0,0-14.69-6,29.13,29.13,0,0,0-9.27.14c-2,.4-4,1-6.09,1.46v-192C34.59,13,36,8.22,40.06,4.68a17.74,17.74,0,0,1,8-4.07A31.31,31.31,0,0,1,54.89.17H406.32c1.31,0,2.61,0,3.92.06C405.18,4.14,400.16,8.09,395.07,12c-5.44,4.15-10.81,8.44-16.33,12.44-3.78,2.75-7.37,5.74-11.08,8.59-4.13,3.17-8.31,6.28-12.45,9.44L325.62,65.06C318.08,70.8,310.45,76.44,303,82.23c-6.51,5-13,10.09-19.61,15-3.85,2.85-7.57,5.87-11.43,8.71-4.45,3.28-8.78,6.73-13.17,10.1l-13.27,10.21L225.08,141.8q-14.79,11.31-29.59,22.6c-5.58,4.25-11.22,8.42-16.81,12.66-4.13,3.13-8.2,6.34-12.32,9.48-5.22,4-10.48,7.93-15.71,11.92-6.83,5.21-13.66,10.41-20.43,15.7-1.87,1.46-4,2.66-5.51,4.51-.3.26-.6.54-.91.78q-35.1,27-70.23,53.8C47.29,278.07,41,282.85,34.68,287.65ZM53.85,79.32c.08,37.7,29.53,69.94,69.4,70,38.7.08,69.36-31,69.43-69.79A69.36,69.36,0,0,0,124,9.53h-.19C85.13,9.26,53.91,40.61,53.85,79.32Z"/><path class="cls-3" d="M124.74,218.7c1.55-1.85,3.64-3,5.51-4.51,6.77-5.29,13.6-10.49,20.43-15.7,5.23-4,10.49-7.93,15.71-11.92,4.12-3.14,8.19-6.35,12.32-9.48,5.59-4.24,11.23-8.41,16.81-12.66q14.82-11.28,29.59-22.63l20.35-15.56L258.74,116c4.39-3.37,8.72-6.82,13.17-10.1,3.86-2.84,7.58-5.86,11.43-8.71,6.62-4.89,13.1-10,19.61-15,7.5-5.79,15.13-11.43,22.67-17.17q14.82-11.29,29.59-22.63c4.14-3.16,8.32-6.27,12.45-9.44,3.71-2.85,7.3-5.84,11.08-8.59,5.56-4,10.93-8.3,16.4-12.46C400.23,8.06,405.25,4.11,410.31.2c7.12,0,14.29-.5,21.37.07,7.68.63,15,5.37,16.82,14.56a22.47,22.47,0,0,1,.36,4.33V169.6a11.4,11.4,0,0,1-.08,1.65,7.78,7.78,0,0,0-3.5,2.42h-.77c-3.08-2.5-6.59-4.34-9.84-6.57-3.67-2.51-7.38-5-11.07-7.44-4.78-3.19-9.6-6.32-14.35-9.55-6.51-4.35-12.92-8.71-19.62-12.71s-13.51-7.78-20.31-11.58C363,122.29,356.9,118.36,350,116a31.06,31.06,0,0,0-13.68-1.12A31.79,31.79,0,0,0,324.51,119c-8.12,4.48-16.27,8.93-24.31,13.56s-16,9.48-23.64,14.74c-4,2.76-8.18,5.36-12.24,8.09-6.47,4.34-12.83,8.86-19.38,13.08-7.1,4.58-14.09,9.32-20.86,14.36-8.34,6.18-16.48,12.56-24.64,19-7.26,5.71-14.55,11.39-21.37,17.63-4.38,4-8.49,8.23-10.89,13.79-2,4.61-1.84,9,1.26,13.18a14.91,14.91,0,0,0,11,6.19c2.44.23,2.44.26,2.48,2.71,0,.9.19,1.79.2,2.69.07,5.72.07,11.44.31,17.15.25,6.12,0,12.24.29,18.36.31,7.16.35,14.33.6,21.5s0,14.25.32,21.37c.28,5.81.25,11.63.36,17.45l-.3.87a2.6,2.6,0,0,0-1.71.44c-1.18.84-2.34,1.71-3.52,2.53-3.73,2.61-7.44,5.22-11.19,7.79-4.33,3-8.69,5.91-13,8.89-2.49,1.71-4.91,3.51-7.39,5.22-5,3.44-10,6.84-15,10.28-4.11,2.83-8.19,5.7-12.3,8.53-5.34,3.69-10.76,7.25-16,11.12-2.12.26-4.29-.3-6.4.35a6.25,6.25,0,0,1,0-2.2V357.09c0-1,.06-1.43,1.31-1.23a42.37,42.37,0,0,0,49.8-31c1.27-5.47,1.91-11,.92-16.53a2.45,2.45,0,0,1,.8-2.42,40.59,40.59,0,0,0,12-20.07,41.07,41.07,0,0,0-8.35-36.8c-5.67-6.56-12.54-11.26-21-13.35a2.45,2.45,0,0,1-2.18-2.38,34.12,34.12,0,0,0-4.3-13.5C125.8,219.26,125.61,218.49,124.74,218.7Z"/><path class="cls-4" d="M124.74,218.7c.9-.21,1.09.56,1.38,1.08a34.12,34.12,0,0,1,4.3,13.5,2.45,2.45,0,0,0,2.18,2.38,39.85,39.85,0,0,1,21,13.35,41.07,41.07,0,0,1,8.35,36.8,40.59,40.59,0,0,1-12,20.07,2.45,2.45,0,0,0-.8,2.42c1,5.57.35,11.06-.92,16.53a42.37,42.37,0,0,1-49.8,31c-1.25-.2-1.32.26-1.31,1.23V407.7a6.25,6.25,0,0,0,0,2.2v5a.39.39,0,0,0-.25.06c-.84-.06-1.36.56-2,1q-13.12,8.73-26.26,17.5c-.19-8.83-.08-17.66-.19-26.49-.2-15.61-.07-31.22,0-46.84,0-1.35-.22-1.83-1.76-1.58a36.51,36.51,0,0,1-10.49.16c-8.14-1-15.53-3.76-21.63-9.46A1.69,1.69,0,0,0,34,349l-1.78-1.83a4,4,0,0,0-1.74-1.9A37.8,37.8,0,0,1,22,324.49a2.88,2.88,0,0,0-2.5-2.91A35.53,35.53,0,0,1,4.25,312.4c-1-.94,0-1.28.51-1.7l21-16.12c3-2.29,5.93-4.61,8.9-6.91,6.3-4.8,12.61-9.58,18.89-14.4q35.19-26.86,70.25-53.79C124.11,219.24,124.41,219,124.74,218.7Z"/><path class="cls-5" d="M34.59,210.15c2-.44,4-1.06,6.09-1.46a29.13,29.13,0,0,1,9.27-.14,31,31,0,0,1,14.69,6c.69.52,1,.21,1.5-.24A31.25,31.25,0,0,1,78,207.56a33.94,33.94,0,0,1,11.72-1.42,30.07,30.07,0,0,1,13.68,4,31.67,31.67,0,0,1,9.65,8.6c.67.89.46,1.33-.33,1.93Q95.4,233.93,78.07,247.2l-43.16,33a2.35,2.35,0,0,0-.3.33L14.12,296.11c-1.71,1.31-3.45,2.59-5.12,4-.72.59-1.11.49-1.68-.19A31,31,0,0,1,.74,286.15c-1.83-8.55-.2-16.47,4-23.93a34.67,34.67,0,0,1,11-11.66,1.69,1.69,0,0,0,.91-2.21.36.36,0,0,0,0-.09A30.53,30.53,0,0,1,30,212.74C31.44,211.82,33,211,34.59,210.15Z"/><path class="cls-6" d="M103.59,409.55c5.21-3.87,10.63-7.43,16-11.12,4.11-2.83,8.19-5.7,12.3-8.53,5-3.44,10-6.84,15-10.28,2.48-1.71,4.9-3.51,7.39-5.22,4.33-3,8.69-5.91,13-8.89,3.75-2.57,7.46-5.18,11.19-7.79,1.18-.82,2.34-1.69,3.52-2.53a2.6,2.6,0,0,1,1.71-.44q.15,8.61.26,17.21c-.29.93-.63,1.87.24,2.69,0,4.51,0,9,.17,13.53.33,6.86.12,13.72.46,20.57a3.06,3.06,0,0,1-.18.86H105.54Z"/><path class="cls-3" d="M34,349a1.69,1.69,0,0,1,.54.21c6.1,5.7,13.49,8.42,21.63,9.46a36.51,36.51,0,0,0,10.49-.16c1.54-.25,1.76.23,1.76,1.58,0,15.62-.17,31.23,0,46.84.11,8.83,0,17.66.19,26.49a6.34,6.34,0,0,0-.13,1.79,67.2,67.2,0,0,1,0,7.51c-.75-.44-.41-1.18-.41-1.77V411.32c0-1.42-.42-1.77-1.78-1.75-4.21.09-8.43,0-12.65,0-8.34.08-14-4.09-17.64-11.27a14.49,14.49,0,0,1-1.36-6.39c-.06-13.15,0-26.31,0-39.46A5.62,5.62,0,0,0,34,349Z"/><path class="cls-7" d="M68.47,442.76a67.2,67.2,0,0,0,0-7.51,6.34,6.34,0,0,1,.13-1.79Q81.74,424.7,95,416c.61-.4,1.13-1,2-1l.29,1c0,8.47,0,16.94-.06,25.41a9.79,9.79,0,0,1-9.71,9.89h-.21c-3.65.08-7.32.35-11-.26-3.88-.66-6.26-3-7.44-6.72.09-.39.11-.76-.3-1Z"/><path class="cls-8" d="M184,353.88c-.11-5.82-.08-11.64-.36-17.45-.34-7.12-.07-14.25-.32-21.37s-.29-14.34-.6-21.5c-.26-6.12,0-12.24-.29-18.36-.24-5.71-.24-11.43-.31-17.15,0-.9-.18-1.79-.2-2.69,0-2.45,0-2.48-2.48-2.71a14.91,14.91,0,0,1-11-6.19c-3.1-4.14-3.25-8.57-1.26-13.18,2.4-5.56,6.51-9.78,10.89-13.79,6.82-6.24,14.11-11.92,21.37-17.63,8.16-6.42,16.32-12.84,24.64-19.05,6.77-5,13.76-9.78,20.86-14.36,6.55-4.22,12.91-8.74,19.38-13.08,4.06-2.73,8.21-5.33,12.24-8.09,7.67-5.26,15.59-10.11,23.64-14.74s16.19-9.08,24.31-13.56a31.73,31.73,0,0,1,11.82-4.17A31.06,31.06,0,0,1,350,115.93c6.89,2.4,13,6.33,19.31,9.86,6.8,3.8,13.61,7.6,20.31,11.58s13.13,8.39,19.59,12.76c4.75,3.23,9.57,6.36,14.35,9.55,3.69,2.47,7.4,4.93,11.07,7.44,3.25,2.23,6.76,4.07,9.84,6.57-1.82,1.9-4.16,3.09-6.28,4.58q-12.54,8.78-25.16,17.48c-8.05,5.54-16.14,11-24.18,16.56s-16.29,11.32-24.45,17q-15.06,10.42-30.16,20.81l-43.8,30.22-28.92,20-47.11,32.57q-13.53,9.36-27.09,18.68C186.22,352.32,185.12,353.1,184,353.88Z"/><path class="cls-9" d="M53.85,79.32c.06-38.71,31.28-70.06,69.89-69.79a69.36,69.36,0,0,1,68.9,69.82v.18c0,38.87-30.69,69.87-69.39,69.87C83.38,149.26,53.93,117,53.85,79.32Z"/></g></g></g></g></svg>